<svg width="175" height="39" viewBox="0 0 175 39" fill="none" xmlns="http://www.w3.org/2000/svg">
<path d="M12.793 17.3481H15.1367C15.0146 18.4712 14.6932 19.4762 14.1724 20.3633C13.6515 21.2503 12.915 21.9543 11.9629 22.4751C11.0107 22.9878 9.82259 23.2441 8.39844 23.2441C7.35677 23.2441 6.40869 23.0488 5.5542 22.6582C4.70785 22.2676 3.97949 21.7142 3.36914 20.998C2.75879 20.2738 2.28678 19.4071 1.95312 18.3979C1.6276 17.3807 1.46484 16.2495 1.46484 15.0044V13.2344C1.46484 11.9893 1.6276 10.8621 1.95312 9.85303C2.28678 8.83577 2.76286 7.96501 3.38135 7.24072C4.00798 6.51644 4.76074 5.95898 5.63965 5.56836C6.51855 5.17773 7.50732 4.98242 8.60596 4.98242C9.94873 4.98242 11.084 5.2347 12.0117 5.73926C12.9395 6.24382 13.6597 6.94368 14.1724 7.83887C14.6932 8.72591 15.0146 9.75537 15.1367 10.9272H12.793C12.679 10.0972 12.4674 9.38509 12.1582 8.79102C11.849 8.1888 11.4095 7.72493 10.8398 7.39941C10.2702 7.07389 9.52555 6.91113 8.60596 6.91113C7.81657 6.91113 7.12077 7.06169 6.51855 7.36279C5.92448 7.6639 5.42399 8.09115 5.01709 8.64453C4.61833 9.19792 4.31722 9.86117 4.11377 10.6343C3.91032 11.4074 3.80859 12.266 3.80859 13.21V15.0044C3.80859 15.8752 3.89811 16.693 4.07715 17.458C4.26432 18.223 4.54508 18.8944 4.91943 19.4722C5.29378 20.05 5.76986 20.5057 6.34766 20.8394C6.92546 21.1649 7.60905 21.3276 8.39844 21.3276C9.39941 21.3276 10.1969 21.1689 10.791 20.8516C11.3851 20.5342 11.8327 20.0785 12.1338 19.4844C12.443 18.8903 12.6628 18.1782 12.793 17.3481ZM17.4072 16.5425V16.2617C17.4072 15.3096 17.5456 14.4266 17.8223 13.6128C18.099 12.7909 18.4977 12.0788 19.0186 11.4766C19.5394 10.8662 20.1701 10.3942 20.9106 10.0605C21.6512 9.71875 22.4813 9.54785 23.4009 9.54785C24.3286 9.54785 25.1628 9.71875 25.9033 10.0605C26.652 10.3942 27.2868 10.8662 27.8076 11.4766C28.3366 12.0788 28.7394 12.7909 29.0161 13.6128C29.2928 14.4266 29.4312 15.3096 29.4312 16.2617V16.5425C29.4312 17.4946 29.2928 18.3776 29.0161 19.1914C28.7394 20.0052 28.3366 20.7173 27.8076 21.3276C27.2868 21.9299 26.6561 22.4019 25.9155 22.7437C25.1831 23.0773 24.353 23.2441 23.4253 23.2441C22.4976 23.2441 21.6634 23.0773 20.9229 22.7437C20.1823 22.4019 19.5475 21.9299 19.0186 21.3276C18.4977 20.7173 18.099 20.0052 17.8223 19.1914C17.5456 18.3776 17.4072 17.4946 17.4072 16.5425ZM19.6655 16.2617V16.5425C19.6655 17.2017 19.7428 17.8242 19.8975 18.4102C20.0521 18.988 20.284 19.5007 20.5933 19.9482C20.9106 20.3958 21.3053 20.7498 21.7773 21.0103C22.2493 21.2625 22.7987 21.3887 23.4253 21.3887C24.0438 21.3887 24.585 21.2625 25.0488 21.0103C25.5208 20.7498 25.9115 20.3958 26.2207 19.9482C26.5299 19.5007 26.7619 18.988 26.9165 18.4102C27.0793 17.8242 27.1606 17.2017 27.1606 16.5425V16.2617C27.1606 15.6107 27.0793 14.9963 26.9165 14.4185C26.7619 13.8325 26.5259 13.3158 26.2085 12.8682C25.8993 12.4124 25.5086 12.0544 25.0366 11.7939C24.5728 11.5335 24.0275 11.4033 23.4009 11.4033C22.7824 11.4033 22.2371 11.5335 21.7651 11.7939C21.3013 12.0544 20.9106 12.4124 20.5933 12.8682C20.284 13.3158 20.0521 13.8325 19.8975 14.4185C19.7428 14.9963 19.6655 15.6107 19.6655 16.2617ZM34.5093 12.4165V23H32.2388V9.79199H34.3872L34.5093 12.4165ZM34.0454 15.8955L32.9956 15.8589C33.0037 14.9556 33.1217 14.1214 33.3496 13.3564C33.5775 12.5833 33.9152 11.9119 34.3628 11.3423C34.8104 10.7726 35.3678 10.3332 36.0352 10.0239C36.7025 9.70654 37.4756 9.54785 38.3545 9.54785C38.973 9.54785 39.5426 9.63737 40.0635 9.81641C40.5843 9.9873 41.036 10.2599 41.4185 10.6343C41.8009 11.0086 42.098 11.4888 42.3096 12.0747C42.5212 12.6606 42.627 13.3687 42.627 14.1987V23H40.3687V14.3086C40.3687 13.6169 40.2507 13.0635 40.0146 12.6484C39.7868 12.2334 39.4613 11.9323 39.0381 11.7451C38.6149 11.5498 38.1185 11.4521 37.5488 11.4521C36.8815 11.4521 36.3241 11.5701 35.8765 11.8062C35.4289 12.0422 35.0708 12.3677 34.8022 12.7827C34.5337 13.1978 34.3384 13.6738 34.2163 14.2109C34.1024 14.7399 34.0454 15.3014 34.0454 15.8955ZM42.6025 14.6504L41.0889 15.1143C41.097 14.39 41.215 13.6942 41.4429 13.0269C41.6789 12.3595 42.0166 11.7655 42.4561 11.2446C42.9036 10.7238 43.453 10.3128 44.104 10.0117C44.755 9.70247 45.4997 9.54785 46.3379 9.54785C47.0459 9.54785 47.6725 9.64144 48.2178 9.82861C48.7712 10.0158 49.235 10.3047 49.6094 10.6953C49.9919 11.0778 50.2808 11.5701 50.4761 12.1724C50.6714 12.7746 50.769 13.4907 50.769 14.3208V23H48.4985V14.2964C48.4985 13.5558 48.3805 12.9821 48.1445 12.5752C47.9167 12.1602 47.5911 11.8713 47.168 11.7085C46.7529 11.5376 46.2565 11.4521 45.6787 11.4521C45.1823 11.4521 44.7428 11.5376 44.3604 11.7085C43.9779 11.8794 43.6564 12.1154 43.396 12.4165C43.1356 12.7095 42.9362 13.0472 42.7979 13.4297C42.6676 13.8122 42.6025 14.2191 42.6025 14.6504ZM56.4453 12.3311V28.0781H54.1748V9.79199H56.25L56.4453 12.3311ZM65.3442 16.2861V16.5425C65.3442 17.5028 65.2303 18.3939 65.0024 19.2158C64.7746 20.0296 64.4409 20.7376 64.0015 21.3398C63.5701 21.9421 63.0371 22.41 62.4023 22.7437C61.7676 23.0773 61.0392 23.2441 60.2173 23.2441C59.3791 23.2441 58.6385 23.1058 57.9956 22.8291C57.3527 22.5524 56.8075 22.1496 56.3599 21.6206C55.9123 21.0916 55.5542 20.4569 55.2856 19.7163C55.0252 18.9757 54.8462 18.1416 54.7485 17.2139V15.8467C54.8462 14.8701 55.0293 13.9953 55.2979 13.2222C55.5664 12.4491 55.9204 11.7899 56.3599 11.2446C56.8075 10.6912 57.3486 10.2721 57.9834 9.9873C58.6182 9.69434 59.3506 9.54785 60.1807 9.54785C61.0107 9.54785 61.7472 9.71061 62.3901 10.0361C63.033 10.3535 63.5742 10.8092 64.0137 11.4033C64.4531 11.9974 64.7827 12.7095 65.0024 13.5396C65.2303 14.3615 65.3442 15.277 65.3442 16.2861ZM63.0737 16.5425V16.2861C63.0737 15.627 63.0046 15.0085 62.8662 14.4307C62.7279 13.8447 62.5122 13.332 62.2192 12.8926C61.9344 12.445 61.5682 12.0951 61.1206 11.8428C60.673 11.5824 60.14 11.4521 59.5215 11.4521C58.9518 11.4521 58.4554 11.5498 58.0322 11.7451C57.6172 11.9404 57.2632 12.2049 56.9702 12.5386C56.6772 12.8641 56.4372 13.2384 56.25 13.6616C56.071 14.0767 55.9367 14.508 55.8472 14.9556V18.1172C56.0099 18.6868 56.2378 19.224 56.5308 19.7285C56.8237 20.2249 57.2144 20.6278 57.7026 20.937C58.1909 21.2381 58.8053 21.3887 59.5459 21.3887C60.1562 21.3887 60.6812 21.2625 61.1206 21.0103C61.5682 20.7498 61.9344 20.3958 62.2192 19.9482C62.5122 19.5007 62.7279 18.988 62.8662 18.4102C63.0046 17.8242 63.0737 17.2017 63.0737 16.5425ZM76.0132 20.7417V13.9424C76.0132 13.4215 75.9074 12.9699 75.6958 12.5874C75.4924 12.1968 75.1831 11.8957 74.7681 11.6841C74.353 11.4725 73.8403 11.3667 73.23 11.3667C72.6603 11.3667 72.1598 11.4644 71.7285 11.6597C71.3053 11.855 70.9717 12.1113 70.7275 12.4287C70.4915 12.7461 70.3735 13.0879 70.3735 13.4541H68.1152C68.1152 12.9821 68.2373 12.5142 68.4814 12.0503C68.7256 11.5864 69.0755 11.1673 69.5312 10.793C69.9951 10.4105 70.5485 10.1094 71.1914 9.88965C71.8424 9.66178 72.5667 9.54785 73.3643 9.54785C74.3245 9.54785 75.1709 9.71061 75.9033 10.0361C76.6439 10.3617 77.2217 10.854 77.6367 11.5132C78.0599 12.1642 78.2715 12.9821 78.2715 13.9668V20.1191C78.2715 20.5586 78.3081 21.0265 78.3813 21.5229C78.4627 22.0194 78.5807 22.4466 78.7354 22.8047V23H76.3794C76.2655 22.7396 76.1759 22.3937 76.1108 21.9624C76.0457 21.5229 76.0132 21.116 76.0132 20.7417ZM76.4038 14.9922L76.4282 16.5791H74.1455C73.5026 16.5791 72.9289 16.632 72.4243 16.7378C71.9198 16.8354 71.4966 16.986 71.1548 17.1895C70.813 17.3929 70.5526 17.6493 70.3735 17.9585C70.1945 18.2596 70.105 18.6136 70.105 19.0205C70.105 19.4355 70.1986 19.814 70.3857 20.1558C70.5729 20.4976 70.8537 20.7702 71.228 20.9736C71.6105 21.1689 72.0785 21.2666 72.6318 21.2666C73.3236 21.2666 73.9339 21.1201 74.4629 20.8271C74.9919 20.5342 75.411 20.1761 75.7202 19.7529C76.0376 19.3298 76.2085 18.9188 76.2329 18.52L77.1973 19.6064C77.1403 19.9482 76.9857 20.3267 76.7334 20.7417C76.4811 21.1567 76.1434 21.5555 75.7202 21.938C75.3052 22.3123 74.8088 22.6257 74.231 22.8779C73.6613 23.1221 73.0184 23.2441 72.3022 23.2441C71.4071 23.2441 70.6217 23.0692 69.9463 22.7192C69.279 22.3693 68.7581 21.9014 68.3838 21.3154C68.0176 20.7214 67.8345 20.0581 67.8345 19.3257C67.8345 18.6177 67.9728 17.9951 68.2495 17.458C68.5262 16.9128 68.925 16.4611 69.4458 16.103C69.9666 15.7368 70.5933 15.4601 71.3257 15.2729C72.0581 15.0858 72.876 14.9922 73.7793 14.9922H76.4038ZM84.082 11.8672V23H81.8237V9.79199H84.021L84.082 11.8672ZM88.208 9.71875L88.1958 11.8184C88.0086 11.7777 87.8296 11.7533 87.6587 11.7451C87.4959 11.7288 87.3088 11.7207 87.0972 11.7207C86.5763 11.7207 86.1165 11.8021 85.7178 11.9648C85.319 12.1276 84.9813 12.3555 84.7046 12.6484C84.4279 12.9414 84.2082 13.2913 84.0454 13.6982C83.8908 14.097 83.7891 14.5365 83.7402 15.0166L83.1055 15.3828C83.1055 14.5853 83.1828 13.8366 83.3374 13.1367C83.5002 12.4368 83.7484 11.8184 84.082 11.2812C84.4157 10.736 84.8389 10.3128 85.3516 10.0117C85.8724 9.70247 86.4909 9.54785 87.207 9.54785C87.3698 9.54785 87.557 9.5682 87.7686 9.60889C87.9801 9.64144 88.1266 9.67806 88.208 9.71875ZM95.5322 23.2441C94.6126 23.2441 93.7785 23.0895 93.0298 22.7803C92.2892 22.4629 91.6504 22.0194 91.1133 21.4497C90.5843 20.88 90.1774 20.2046 89.8926 19.4233C89.6077 18.6421 89.4653 17.7876 89.4653 16.8599V16.3472C89.4653 15.2729 89.624 14.3167 89.9414 13.4785C90.2588 12.6322 90.6901 11.916 91.2354 11.3301C91.7806 10.7441 92.3991 10.3006 93.0908 9.99951C93.7826 9.6984 94.4987 9.54785 95.2393 9.54785C96.1833 9.54785 96.9971 9.71061 97.6807 10.0361C98.3724 10.3617 98.938 10.8174 99.3774 11.4033C99.8169 11.9811 100.142 12.6647 100.354 13.4541C100.566 14.2354 100.671 15.0898 100.671 16.0176V17.0308H90.8081V15.1875H98.4131V15.0166C98.3805 14.4307 98.2585 13.861 98.0469 13.3076C97.8434 12.7542 97.5179 12.2985 97.0703 11.9404C96.6227 11.5824 96.0124 11.4033 95.2393 11.4033C94.7266 11.4033 94.2546 11.5132 93.8232 11.7329C93.3919 11.9445 93.0216 12.2619 92.7124 12.6851C92.4032 13.1082 92.1631 13.625 91.9922 14.2354C91.8213 14.8457 91.7358 15.5496 91.7358 16.3472V16.8599C91.7358 17.4865 91.8213 18.0765 91.9922 18.6299C92.1712 19.1751 92.4276 19.6553 92.7612 20.0703C93.103 20.4854 93.514 20.8109 93.9941 21.0469C94.4824 21.2829 95.0358 21.4009 95.6543 21.4009C96.4518 21.4009 97.1273 21.2381 97.6807 20.9126C98.234 20.5871 98.7183 20.1517 99.1333 19.6064L100.5 20.6929C100.216 21.1242 99.8535 21.5352 99.4141 21.9258C98.9746 22.3164 98.4334 22.6338 97.7905 22.8779C97.1558 23.1221 96.403 23.2441 95.5322 23.2441ZM106.592 13.1367L109.253 11.2446C109.766 10.8947 110.16 10.5448 110.437 10.1948C110.722 9.83675 110.864 9.34847 110.864 8.72998C110.864 8.24984 110.677 7.81445 110.303 7.42383C109.928 7.02507 109.399 6.82568 108.716 6.82568C108.244 6.82568 107.845 6.93555 107.52 7.15527C107.194 7.375 106.95 7.66797 106.787 8.03418C106.624 8.39225 106.543 8.78695 106.543 9.21826C106.543 9.58447 106.632 9.96289 106.812 10.3535C106.991 10.7441 107.239 11.151 107.556 11.5742C107.874 11.9974 108.236 12.445 108.643 12.917L117.053 23H114.343L107.446 14.748C106.836 14.0319 106.291 13.3768 105.811 12.7827C105.33 12.1805 104.952 11.5986 104.675 11.0371C104.407 10.4756 104.272 9.89372 104.272 9.2915C104.272 8.36377 104.456 7.58252 104.822 6.94775C105.196 6.30485 105.717 5.81657 106.384 5.48291C107.052 5.14925 107.833 4.98242 108.728 4.98242C109.599 4.98242 110.347 5.15739 110.974 5.50732C111.609 5.84912 112.097 6.30485 112.439 6.87451C112.781 7.43604 112.952 8.05452 112.952 8.72998C112.952 9.29964 112.85 9.81234 112.646 10.2681C112.443 10.7157 112.158 11.1266 111.792 11.501C111.434 11.8753 111.015 12.2415 110.535 12.5996L107.007 15.2241C106.421 15.6554 105.994 16.0664 105.725 16.457C105.457 16.8477 105.282 17.1935 105.2 17.4946C105.127 17.7957 105.09 18.0358 105.09 18.2148C105.09 18.7926 105.216 19.3216 105.469 19.8018C105.721 20.2819 106.104 20.6685 106.616 20.9614C107.137 21.2463 107.788 21.3887 108.569 21.3887C109.253 21.3887 109.916 21.234 110.559 20.9248C111.21 20.6074 111.792 20.1598 112.305 19.582C112.817 18.9961 113.224 18.3003 113.525 17.4946C113.835 16.6808 113.989 15.7816 113.989 14.7969H116.016C116.016 15.6025 115.938 16.3634 115.784 17.0796C115.629 17.7957 115.389 18.4631 115.063 19.0815C114.746 19.6919 114.339 20.2493 113.843 20.7539C113.77 20.8271 113.713 20.9126 113.672 21.0103C113.631 21.1079 113.574 21.1934 113.501 21.2666C112.891 21.9258 112.138 22.4222 111.243 22.7559C110.356 23.0814 109.465 23.2441 108.569 23.2441C107.389 23.2441 106.368 23.0285 105.505 22.5972C104.651 22.1659 103.992 21.5718 103.528 20.8149C103.064 20.0581 102.832 19.1914 102.832 18.2148C102.832 17.4661 102.991 16.807 103.308 16.2373C103.634 15.6676 104.077 15.1346 104.639 14.6382C105.208 14.1418 105.859 13.6413 106.592 13.1367ZM123.877 17.6289L127.405 5.22656H129.114L128.125 10.0483L124.329 23H122.632L123.877 17.6289ZM120.227 5.22656L123.035 17.3848L123.877 23H122.192L117.883 5.22656H120.227ZM133.679 17.3726L136.426 5.22656H138.782L134.485 23H132.8L133.679 17.3726ZM129.37 5.22656L132.8 17.6289L134.045 23H132.349L128.687 10.0483L127.686 5.22656H129.37ZM140.063 16.5425V16.2617C140.063 15.3096 140.202 14.4266 140.479 13.6128C140.755 12.7909 141.154 12.0788 141.675 11.4766C142.196 10.8662 142.826 10.3942 143.567 10.0605C144.307 9.71875 145.138 9.54785 146.057 9.54785C146.985 9.54785 147.819 9.71875 148.56 10.0605C149.308 10.3942 149.943 10.8662 150.464 11.4766C150.993 12.0788 151.396 12.7909 151.672 13.6128C151.949 14.4266 152.087 15.3096 152.087 16.2617V16.5425C152.087 17.4946 151.949 18.3776 151.672 19.1914C151.396 20.0052 150.993 20.7173 150.464 21.3276C149.943 21.9299 149.312 22.4019 148.572 22.7437C147.839 23.0773 147.009 23.2441 146.082 23.2441C145.154 23.2441 144.32 23.0773 143.579 22.7437C142.839 22.4019 142.204 21.9299 141.675 21.3276C141.154 20.7173 140.755 20.0052 140.479 19.1914C140.202 18.3776 140.063 17.4946 140.063 16.5425ZM142.322 16.2617V16.5425C142.322 17.2017 142.399 17.8242 142.554 18.4102C142.708 18.988 142.94 19.5007 143.25 19.9482C143.567 20.3958 143.962 20.7498 144.434 21.0103C144.906 21.2625 145.455 21.3887 146.082 21.3887C146.7 21.3887 147.241 21.2625 147.705 21.0103C148.177 20.7498 148.568 20.3958 148.877 19.9482C149.186 19.5007 149.418 18.988 149.573 18.4102C149.736 17.8242 149.817 17.2017 149.817 16.5425V16.2617C149.817 15.6107 149.736 14.9963 149.573 14.4185C149.418 13.8325 149.182 13.3158 148.865 12.8682C148.556 12.4124 148.165 12.0544 147.693 11.7939C147.229 11.5335 146.684 11.4033 146.057 11.4033C145.439 11.4033 144.893 11.5335 144.421 11.7939C143.958 12.0544 143.567 12.4124 143.25 12.8682C142.94 13.3158 142.708 13.8325 142.554 14.4185C142.399 14.9963 142.322 15.6107 142.322 16.2617ZM157.178 11.8672V23H154.919V9.79199H157.117L157.178 11.8672ZM161.304 9.71875L161.292 11.8184C161.104 11.7777 160.925 11.7533 160.754 11.7451C160.592 11.7288 160.404 11.7207 160.193 11.7207C159.672 11.7207 159.212 11.8021 158.813 11.9648C158.415 12.1276 158.077 12.3555 157.8 12.6484C157.524 12.9414 157.304 13.2913 157.141 13.6982C156.986 14.097 156.885 14.5365 156.836 15.0166L156.201 15.3828C156.201 14.5853 156.278 13.8366 156.433 13.1367C156.596 12.4368 156.844 11.8184 157.178 11.2812C157.511 10.736 157.935 10.3128 158.447 10.0117C158.968 9.70247 159.587 9.54785 160.303 9.54785C160.465 9.54785 160.653 9.5682 160.864 9.60889C161.076 9.64144 161.222 9.67806 161.304 9.71875ZM165.662 4.25V23H163.391V4.25H165.662ZM173.73 9.79199L167.969 15.9565L164.746 19.3013L164.563 16.8965L166.87 14.1377L170.972 9.79199H173.73ZM171.667 23L166.956 16.7012L168.127 14.687L174.329 23H171.667Z" fill="#4540DB"/>
<path d="M36 24.3615C36 24.3615 68.4273 37.8314 90.8009 37.2875C111.094 36.7942 140 24.3615 140 24.3615" stroke="url(#paint0_linear_31_1723)" stroke-width="2" stroke-linejoin="round"/>
<defs>
<linearGradient id="paint0_linear_31_1723" x1="140" y1="24.3615" x2="30.9156" y2="21.5123" gradientUnits="userSpaceOnUse">
<stop offset="0.119831" stop-color="#4540DB"/>
<stop offset="1"/>
</linearGradient>
</defs>
</svg>
